<svg width="1440" height="730" viewBox="0 0 1440 730" fill="none" xmlns="http://www.w3.org/2000/svg">
    <!-- <rect width="1440" height="730" fill="white" /> -->
    <path
        d="M1013 216.337C1013 212.562 1015.13 209.109 1018.5 207.409L1048.5 192.273C1051.33 190.843 1054.67 190.843 1057.5 192.273L1087.5 207.409C1090.87 209.109 1093 212.562 1093 216.337V251.395C1093 254.987 1091.07 258.304 1087.95 260.083L1057.95 277.179C1054.88 278.928 1051.12 278.928 1048.05 277.179L1018.05 260.083C1014.93 258.304 1013 254.987 1013 251.395V216.337Z"
        fill="url(#paint0_linear)" />
    <path
        d="M476 584.026C476 587.798 473.878 591.249 470.511 592.951L421.511 617.72C418.675 619.153 415.325 619.153 412.489 617.72L363.489 592.951C360.122 591.249 358 587.798 358 584.026L358 526.491C358 522.901 359.924 519.586 363.042 517.806L412.042 489.831C415.115 488.076 418.885 488.076 421.958 489.831L470.958 517.806C474.076 519.586 476 522.901 476 526.491L476 584.026Z"
        fill="url(#paint1_linear)" />
    <path
        d="M1075 103.073C1075 99.2933 1077.13 95.837 1080.51 94.1389L1124.01 72.26C1126.83 70.8382 1130.17 70.8382 1132.99 72.26L1176.49 94.1389C1179.87 95.837 1182 99.2933 1182 103.073V153.787C1182 157.385 1180.07 160.705 1176.94 162.482L1133.44 187.194C1130.38 188.934 1126.62 188.934 1123.56 187.194L1080.06 162.482C1076.93 160.705 1075 157.385 1075 153.787V103.073Z"
        fill="url(#paint2_linear)" />
    <path
        d="M1253 208.098C1253 196.782 1259.37 186.429 1269.47 181.324L1357.47 136.841C1365.98 132.54 1376.02 132.54 1384.53 136.841L1472.53 181.324C1482.63 186.429 1489 196.782 1489 208.098V311.213C1489 321.983 1483.23 331.926 1473.87 337.266L1385.87 387.508C1376.66 392.771 1365.34 392.771 1356.13 387.508L1268.13 337.266C1258.77 331.926 1253 321.983 1253 311.213V208.098Z"
        fill="url(#paint3_linear)" />
    <defs>
        <linearGradient id="paint0_linear" x1="1014.92" y1="210.181" x2="1079.56" y2="288.712"
            gradientUnits="userSpaceOnUse">
            <stop stop-color="white" />
            <stop offset="1" stop-color="#EFEFFA" />
        </linearGradient>
        <linearGradient id="paint1_linear" x1="473.169" y1="590.176" x2="377.617" y2="474.303"
            gradientUnits="userSpaceOnUse">
            <stop stop-color="white" />
            <stop offset="1" stop-color="#EFEFFA" />
        </linearGradient>
        <linearGradient id="paint2_linear" x1="1077.57" y1="96.9085" x2="1163.7" y2="201.879"
            gradientUnits="userSpaceOnUse">
            <stop stop-color="#F7F7FC" />
            <stop offset="1" stop-color="white" />
        </linearGradient>
        <linearGradient id="paint3_linear" x1="1258.66" y1="189.647" x2="1449.77" y2="421.395"
            gradientUnits="userSpaceOnUse">
            <stop stop-color="#EFEFFA" />
            <stop offset="1" stop-color="white" />
        </linearGradient>
    </defs>
</svg>
